<?xml version="1.0" standalone="no"?>
<!DOCTYPE svg PUBLIC "-//W3C//DTD SVG 20010904//EN"
 "http://www.w3.org/TR/2001/REC-SVG-20010904/DTD/svg10.dtd">
<svg version="1.0" xmlns="http://www.w3.org/2000/svg"
 width="1920.000000pt" height="1920.000000pt" viewBox="0 0 1920.000000 1920.000000"
 preserveAspectRatio="xMidYMid meet">
<metadata>
Created by potrace 1.16, written by Peter Selinger 2001-2019
</metadata>
<g transform="translate(0.000000,1920.000000) scale(0.100000,-0.100000)"
fill="#000000" stroke="none">
<path d="M8240 16180 l0 -570 60 0 60 0 0 570 0 570 -60 0 -60 0 0 -570z"/>
<path d="M10840 16180 l0 -570 60 0 60 0 0 570 0 570 -60 0 -60 0 0 -570z"/>
<path d="M7847 15253 c-4 -3 -7 -87 -7 -185 l0 -178 -408 0 c-304 0 -411 -3
-420 -12 -9 -9 -12 -234 -12 -950 l0 -938 270 0 270 0 0 488 c0 366 3 491 12
500 17 17 4079 17 4096 0 9 -9 12 -133 12 -495 l0 -483 270 0 270 0 0 933 c0
712 -3 936 -12 945 -9 9 -116 12 -420 12 l-408 0 -2 183 -3 182 -450 0 -450 0
-3 -182 -2 -183 -850 0 -850 0 -2 183 -3 182 -446 3 c-245 1 -449 -1 -452 -5z"/>
<path d="M8581 13424 c-125 -33 -258 -140 -315 -252 -76 -149 -75 -332 2 -476
36 -68 144 -175 212 -208 203 -101 434 -64 590 92 317 317 89 862 -360 859
-41 0 -99 -7 -129 -15z m200 -84 c128 -24 252 -119 307 -237 24 -52 27 -69 27
-168 0 -99 -3 -116 -27 -168 -38 -80 -117 -161 -197 -200 -62 -30 -72 -32
-176 -32 -104 0 -114 2 -175 32 -164 81 -260 260 -230 431 30 172 153 302 320
338 71 16 86 16 151 4z"/>
<path d="M8664 13279 c-76 -10 -140 -43 -199 -103 -154 -158 -122 -421 65
-534 73 -43 121 -55 205 -50 95 7 162 37 225 104 67 70 92 129 98 224 3 60 0
87 -18 133 -24 63 -35 71 -43 29 -13 -63 -92 -122 -164 -122 -74 0 -154 69
-169 145 -8 45 11 108 45 144 32 35 25 40 -45 30z"/>
<path d="M10357 13425 c-248 -68 -411 -319 -369 -568 49 -290 338 -483 617
-412 94 24 164 65 235 135 104 103 150 213 150 355 0 142 -47 254 -149 356
-72 72 -138 111 -228 134 -69 18 -190 18 -256 0z m272 -106 c180 -62 295 -261
261 -449 -24 -134 -106 -242 -228 -302 -63 -31 -72 -33 -177 -33 -100 0 -115
3 -166 28 -160 78 -246 221 -237 396 5 107 35 178 109 256 114 121 278 160
438 104z"/>
<path d="M10432 13278 c-110 -16 -212 -93 -261 -197 -22 -48 -26 -69 -26 -146
0 -108 20 -159 91 -235 63 -67 136 -102 227 -108 86 -5 134 6 207 50 141 85
200 264 139 423 l-23 60 -7 -51 c-8 -62 -19 -83 -63 -122 -80 -70 -208 -46
-257 48 -21 39 -25 119 -8 153 22 42 73 87 106 93 66 12 48 25 -52 37 -11 2
-44 -1 -73 -5z"/>
<path d="M11667 12933 c-4 -3 -7 -224 -7 -489 0 -468 -1 -484 -19 -494 -13 -7
-667 -10 -2041 -10 -1374 0 -2028 3 -2041 10 -18 10 -19 26 -19 495 l0 485
-270 0 -270 0 0 -1335 0 -1335 -406 0 c-260 0 -412 -4 -425 -10 -18 -10 -19
-25 -19 -395 l0 -385 -248 -297 c-136 -164 -371 -446 -522 -628 -151 -181
-341 -410 -422 -508 -81 -97 -148 -181 -148 -186 0 -5 14 -14 32 -20 49 -17
130 -84 158 -129 14 -23 28 -40 32 -39 3 1 234 277 513 612 278 336 528 635
555 665 l49 55 1 -355 c0 -205 4 -361 10 -370 8 -13 68 -15 425 -18 l415 -3 0
-368 c0 -296 3 -371 13 -380 10 -8 178 -12 563 -13 l549 -3 3 -158 3 -157
-492 0 -491 0 7 -27 c21 -83 21 -170 1 -245 l-8 -28 488 -2 489 -3 2 -229 c1
-126 4 -235 7 -243 8 -19 2924 -19 2932 0 3 8 6 117 7 243 l2 229 489 3 488 2
-8 28 c-5 15 -9 70 -9 122 0 52 4 107 9 122 l8 28 -488 2 -489 3 0 155 0 155
549 3 c385 1 553 5 563 13 10 9 13 84 13 380 l0 368 414 3 c228 2 418 7 423
11 4 5 10 173 13 373 l5 364 185 -222 c740 -891 922 -1108 930 -1108 4 0 18
15 30 34 29 48 85 95 147 123 l52 24 -188 227 c-104 125 -407 490 -675 812
l-486 584 0 383 c0 368 -1 383 -19 393 -13 6 -165 10 -425 10 l-406 0 0 65 0
65 -1835 0 -1835 0 0 30 0 30 1835 0 1835 0 0 355 0 355 -1835 0 -1835 0 -6
-27 c-37 -176 -140 -296 -291 -343 -60 -18 -93 -20 -388 -20 -293 0 -329 2
-387 20 -224 69 -347 299 -278 522 37 120 111 205 230 262 l65 31 340 3 c386
4 419 0 525 -69 96 -62 158 -160 185 -291 l5 -28 1835 0 1835 0 0 860 0 860
-263 0 c-145 0 -267 -3 -270 -7z m533 -2753 l0 -80 -1835 0 -1835 0 0 75 0 75
1258 3 c691 1 1517 3 1835 5 l577 2 0 -80z m-5200 -1109 c0 -27 -3 -30 -44
-36 -126 -19 -226 -136 -226 -265 0 -131 99 -250 222 -266 45 -6 48 -9 48 -35
0 -25 -4 -29 -30 -29 -94 0 -218 87 -267 189 -24 48 -28 68 -28 141 0 74 4 92
28 140 49 95 125 156 224 179 66 16 73 14 73 -18z m5335 0 c62 -28 130 -94
162 -160 37 -75 40 -200 6 -273 -46 -100 -149 -179 -255 -194 -48 -6 -48 -6
-48 23 0 27 3 30 59 41 187 39 273 265 161 421 -40 55 -111 99 -172 107 -45 6
-48 8 -48 37 0 30 0 30 46 23 25 -3 65 -14 89 -25z m-3003 -1634 c18 -126 129
-219 263 -220 135 -1 249 96 271 231 6 38 9 42 36 42 l30 0 -7 -47 c-16 -110
-88 -206 -190 -254 -114 -55 -262 -33 -358 52 -58 50 -107 146 -107 206 0 42
1 44 27 41 25 -3 29 -8 35 -51z"/>
<path d="M7468 11535 c-54 -18 -138 -78 -174 -126 -53 -69 -68 -117 -68 -219
-1 -86 2 -100 29 -153 44 -87 128 -161 214 -187 64 -20 88 -21 397 -18 l329 3
62 29 c76 35 144 104 181 184 22 48 27 71 27 142 0 71 -5 94 -27 142 -35 76
-104 148 -175 184 l-58 29 -345 2 c-279 2 -354 -1 -392 -12z m172 -345 l0
-220 -90 0 -90 0 0 220 0 220 90 0 90 0 0 -220z m290 0 l0 -220 -90 0 -90 0 0
220 0 220 90 0 90 0 0 -220z m300 0 l0 -220 -90 0 -90 0 0 220 0 220 90 0 90
0 0 -220z"/>
<path d="M4615 7651 c-48 -22 -69 -44 -90 -94 -59 -141 71 -289 218 -247 49
13 73 31 107 80 36 51 35 141 -2 197 -49 75 -150 103 -233 64z m130 -57 c64
-30 85 -94 54 -161 -36 -74 -127 -91 -189 -33 -59 55 -44 156 30 192 43 22 63
22 105 2z"/>
<path d="M14425 7653 c-46 -24 -66 -45 -86 -88 -47 -103 11 -225 122 -255 72
-20 155 13 199 77 21 30 25 49 25 104 0 60 -3 71 -31 106 -17 21 -46 46 -65
55 -42 22 -124 23 -164 1z m160 -73 c57 -54 57 -128 -1 -179 -27 -25 -44 -31
-79 -31 -117 0 -163 152 -65 218 44 30 109 26 145 -8z"/>
<path d="M12351 7199 c-82 -24 -131 -91 -131 -178 0 -58 10 -82 49 -124 38
-42 73 -57 132 -57 119 0 208 112 178 223 -27 103 -131 165 -228 136z m109
-74 c35 -18 60 -62 60 -105 0 -70 -53 -120 -126 -120 -29 0 -44 8 -75 39 -32
32 -39 46 -39 77 0 95 96 153 180 109z"/>
<path d="M6725 7186 c-132 -60 -147 -236 -26 -321 86 -61 213 -29 261 65 24
46 27 128 6 168 -19 36 -65 78 -99 91 -38 15 -106 13 -142 -3z m157 -84 c79
-79 25 -202 -89 -202 -120 0 -156 170 -49 225 45 23 102 13 138 -23z"/>
<path d="M4544 7127 c-2 -7 -3 -289 -2 -627 3 -541 5 -615 18 -611 37 10 209
12 243 3 l37 -10 0 627 0 628 -52 -13 c-67 -18 -133 -18 -192 0 -35 11 -48 11
-52 3z"/>
<path d="M14360 6516 l0 -627 53 8 c66 10 128 10 195 0 l52 -8 0 627 0 626
-22 -6 c-99 -29 -188 -29 -260 -1 -17 7 -18 -27 -18 -619z"/>
<path d="M6650 6175 l0 -497 23 6 c77 23 161 23 250 1 l27 -7 0 497 c0 469 -1
497 -17 490 -10 -4 -44 -12 -75 -18 -56 -10 -139 -2 -190 18 -17 7 -18 -21
-18 -490z"/>
<path d="M12250 6175 c0 -469 1 -497 18 -490 9 4 43 12 75 18 55 10 138 2 190
-18 16 -7 17 21 17 490 l0 497 -27 -8 c-16 -5 -71 -9 -123 -9 -52 0 -107 4
-122 9 l-28 8 0 -497z"/>
<path d="M4340 5697 c0 -9 -3 -22 -6 -30 -4 -10 10 -19 48 -31 113 -37 189
-105 242 -216 28 -59 31 -74 31 -165 0 -94 -2 -105 -33 -168 -33 -66 -33 -69
-16 -88 9 -10 21 -19 25 -19 4 0 24 33 43 73 98 200 42 443 -132 570 -84 62
-202 105 -202 74z"/>
<path d="M14800 5701 c-92 -28 -197 -108 -249 -189 -94 -147 -97 -348 -7 -491
l28 -44 21 22 22 22 -21 37 c-93 161 -61 372 76 496 44 40 119 80 168 91 28 6
33 10 28 28 -3 12 -6 25 -6 30 0 9 -27 8 -60 -2z"/>
<path d="M4314 5555 c-8 -32 -1 -39 50 -55 23 -7 61 -34 87 -60 161 -161 54
-433 -174 -444 l-62 -3 -3 -33 -3 -33 68 5 c123 9 225 75 280 183 37 71 43
179 14 256 -28 74 -88 142 -154 173 -85 40 -95 41 -103 11z"/>
<path d="M14810 5563 c-65 -23 -151 -113 -178 -186 -73 -194 43 -397 251 -438
77 -16 109 -7 105 29 -3 26 -6 27 -68 33 -80 7 -136 35 -184 91 -36 42 -66
118 -66 168 0 97 72 203 165 241 54 22 61 31 49 63 -7 19 -16 19 -74 -1z"/>
<path d="M4979 5015 c-16 -36 -29 -68 -29 -73 0 -9 538 -227 544 -221 7 7 56
132 53 135 -1 2 -90 39 -197 82 -107 44 -228 94 -268 111 l-73 30 -30 -64z"/>
<path d="M14090 5041 c-47 -20 -161 -68 -255 -106 -93 -38 -173 -71 -178 -75
-5 -5 36 -125 48 -138 2 -2 535 207 544 214 7 6 -53 144 -63 143 -6 0 -49 -18
-96 -38z"/>
<path d="M6360 4836 c0 -31 3 -34 38 -41 96 -18 203 -96 257 -189 61 -105 68
-246 18 -359 -25 -55 -25 -58 -8 -77 10 -11 21 -20 25 -20 12 0 60 107 71 161
15 71 6 191 -21 261 -54 145 -194 262 -347 291 -32 6 -33 5 -33 -27z"/>
<path d="M12777 4859 c-101 -24 -210 -102 -269 -193 -58 -89 -82 -179 -75
-280 5 -83 34 -177 65 -216 l17 -22 19 21 c17 19 17 22 -8 85 -14 36 -29 91
-32 123 -12 112 45 255 131 330 49 43 150 93 188 93 24 0 27 3 27 35 0 38 -2
38 -63 24z"/>
<path d="M12803 4725 c-147 -44 -237 -163 -238 -315 0 -133 70 -241 193 -297
29 -14 80 -27 113 -30 l60 -6 -3 33 c-3 33 -5 34 -50 36 -143 8 -248 121 -248
265 0 54 5 77 28 120 33 63 95 115 158 131 38 11 44 16 44 39 0 36 -7 39 -57
24z"/>
<path d="M6340 4702 c0 -25 5 -30 42 -41 81 -25 148 -87 177 -164 19 -51 13
-147 -13 -203 -41 -88 -144 -154 -243 -154 -30 0 -33 -3 -33 -30 0 -29 1 -30
50 -30 79 0 156 35 222 100 48 48 60 68 79 129 17 57 20 86 15 129 -14 121
-97 232 -203 272 -76 28 -93 27 -93 -8z"/>
<path d="M4357 4622 l-27 -3 2 -292 3 -292 71 -3 71 -3 8 287 c4 157 3 290 -2
294 -10 9 -88 17 -126 12z"/>
<path d="M4672 4622 l-72 -3 2 -292 3 -292 71 -3 71 -3 8 292 c4 160 3 294 -1
297 -5 4 -42 6 -82 4z"/>
<path d="M4917 4622 l-47 -3 2 -292 3 -292 75 0 75 0 3 291 2 292 -32 3 c-18
2 -54 3 -81 1z"/>
<path d="M14177 4623 c-4 -3 -7 -136 -7 -295 l0 -288 80 0 80 0 0 295 0 295
-73 0 c-41 0 -77 -3 -80 -7z"/>
<path d="M14445 4619 c-4 -6 -4 -138 0 -295 l8 -284 73 0 74 0 0 295 0 295
-74 0 c-43 0 -78 -5 -81 -11z"/>
<path d="M14715 4619 c-4 -6 -4 -138 0 -295 l8 -284 73 0 74 0 0 295 0 295
-74 0 c-43 0 -78 -5 -81 -11z"/>
<path d="M6216 3678 c-3 -13 -6 -26 -6 -30 0 -5 266 -8 591 -8 535 0 591 2
585 16 -3 9 -6 22 -6 30 0 12 -86 14 -579 14 l-579 0 -6 -22z"/>
<path d="M11820 3686 c0 -8 -3 -21 -6 -30 -6 -14 50 -16 586 -16 l592 0 -6 23
c-3 12 -6 25 -6 30 0 4 -261 7 -580 7 -494 0 -580 -2 -580 -14z"/>
<path d="M11807 3593 c-2 -5 -8 -41 -11 -80 l-7 -73 611 0 612 0 -7 73 c-4 39
-9 75 -12 80 -2 4 -269 7 -593 7 -324 0 -591 -3 -593 -7z"/>
<path d="M6200 3568 c0 -13 -3 -47 -6 -75 l-7 -53 612 0 613 0 -7 68 c-4 37
-9 70 -12 75 -2 4 -272 7 -599 7 l-594 0 0 -22z"/>
<path d="M6648 3208 l-3 -83 -500 -5 -500 -5 -3 -332 -2 -333 895 0 895 0 0
335 0 335 -240 0 -240 0 0 85 0 85 -150 0 -149 0 -3 -82z"/>
<path d="M12250 3210 l0 -80 -240 0 -240 0 0 -340 0 -340 895 0 895 0 0 328
c0 242 -3 331 -12 340 -9 9 -135 12 -505 12 l-493 0 0 80 0 80 -150 0 -150 0
0 -80z"/>
</g>
</svg>
